<?xml version="1.0" encoding="UTF-8" standalone="no"?>
<!DOCTYPE svg PUBLIC "-//W3C//DTD SVG 1.1//EN" "http://www.w3.org/Graphics/SVG/1.1/DTD/svg11.dtd">
<!-- Created with Vectornator (http://vectornator.io/) -->
<svg height="100%" stroke-miterlimit="10" style="fill-rule:nonzero;clip-rule:evenodd;stroke-linecap:round;stroke-linejoin:round;" version="1.1" viewBox="0 0 185 185" width="100%" xml:space="preserve" xmlns="http://www.w3.org/2000/svg" xmlns:vectornator="http://vectornator.io" xmlns:xlink="http://www.w3.org/1999/xlink">
<defs>
<linearGradient gradientTransform="matrix(1 0 0 1 0 0)" gradientUnits="userSpaceOnUse" id="LinearGradient" x1="0" x2="185" y1="92" y2="92">
<stop offset="0" stop-color="#ffdb6e"/>
<stop offset="1" stop-color="#ffbc5e"/>
</linearGradient>
</defs>
<g id="Untitled" vectornator:layerName="Untitled">
<path d="M0 92.5C0 41.4137 41.4137 0 92.5 0L135 0C162.614 0 185 22.3858 185 50L185 92.5C185 143.586 143.586 185 92.5 185L92.5 185C41.4137 185 0 143.586 0 92.5L0 92.5Z" fill="url(#LinearGradient)" fill-rule="nonzero" opacity="1" stroke="none" vectornator:layerName="path"/>
<g fill="#000000" opacity="1" stroke="none" vectornator:layerName="Text 1">
<path d="M34.676 119.358L44.276 61.0384L64.596 61.0384L74.196 119.358L59.956 119.358L59.076 109.998L49.796 109.998L48.916 119.358L34.676 119.358ZM51.316 99.4384L57.556 99.4384L55.876 85.4384L54.836 73.7584L54.036 73.7584L52.996 85.4384L51.316 99.4384Z"/>
<path d="M94.836 120.158C90.516 120.158 87.036 119.372 84.396 117.798C81.756 116.225 79.8627 114.012 78.716 111.158C77.5693 108.305 77.0493 104.985 77.156 101.198L90.676 101.198C90.6227 102.798 90.7293 104.145 90.996 105.238C91.2627 106.332 91.7293 107.158 92.396 107.718C93.0627 108.278 93.956 108.558 95.076 108.558C95.9293 108.558 96.636 108.412 97.196 108.118C97.756 107.825 98.196 107.385 98.516 106.798C98.836 106.212 98.996 105.465 98.996 104.558C98.996 103.438 98.7693 102.425 98.316 101.518C97.8627 100.612 97.236 99.7984 96.436 99.0784C95.636 98.3584 94.716 97.6651 93.676 96.9984C92.636 96.3318 91.5293 95.6518 90.356 94.9584C88.8627 94.0518 87.3293 93.0784 85.756 92.0384C84.1827 90.9984 82.7427 89.7851 81.436 88.3984C80.1293 87.0118 79.076 85.3451 78.276 83.3984C77.476 81.4518 77.076 79.1451 77.076 76.4784C77.076 73.0118 77.836 70.0651 79.356 67.6384C80.876 65.2118 82.996 63.3718 85.716 62.1184C88.436 60.8651 91.5827 60.2384 95.156 60.2384C98.7827 60.2384 101.956 60.8518 104.676 62.0784C107.396 63.3051 109.503 65.2384 110.996 67.8784C112.489 70.5184 113.209 74.0251 113.156 78.3984L99.476 78.3984C99.5293 76.8518 99.396 75.5718 99.076 74.5584C98.756 73.5451 98.2627 72.7851 97.596 72.2784C96.9293 71.7718 96.0627 71.5184 94.996 71.5184C94.1427 71.5184 93.4093 71.6784 92.796 71.9984C92.1827 72.3184 91.7293 72.7584 91.436 73.3184C91.1427 73.8784 90.996 74.5318 90.996 75.2784C90.996 76.1851 91.2093 76.9984 91.636 77.7184C92.0627 78.4384 92.6493 79.1051 93.396 79.7184C94.1427 80.3318 94.996 80.9318 95.956 81.5184C96.916 82.1051 97.956 82.6918 99.076 83.2784C100.409 83.9718 101.756 84.7318 103.116 85.5584C104.476 86.3851 105.796 87.3184 107.076 88.3584C108.356 89.3984 109.503 90.6118 110.516 91.9984C111.529 93.3851 112.329 94.9851 112.916 96.7984C113.503 98.6118 113.796 100.692 113.796 103.038C113.796 107.145 112.943 110.452 111.236 112.958C109.529 115.465 107.249 117.292 104.396 118.438C101.543 119.585 98.356 120.158 94.836 120.158Z"/>
<path d="M116.436 119.358L116.436 96.0304L128.244 96.0304L128.244 100.702L122.132 100.702L122.132 105.214L127.028 105.214L127.028 109.758L122.132 109.758L122.132 114.686L128.436 114.686L128.436 119.358L116.436 119.358Z"/>
<path d="M130.26 119.358L130.26 96.0304L138.772 96.0304L140.692 109.15L140.148 109.15L142.004 96.0304L150.356 96.0304L150.356 119.358L145.332 119.358L145.3 104.67L145.396 102.046L145.236 102.046L144.852 104.638L142.484 119.358L138.132 119.358L135.732 104.606L135.38 102.046L135.22 102.046L135.284 104.67L135.284 119.358L130.26 119.358Z"/>
</g>
</g>
</svg>
